<svg xmlns="http://www.w3.org/2000/svg" xmlns:xlink="http://www.w3.org/1999/xlink" viewBox="0 0 114.09 115.23"><defs><style>.cls-1{fill:none;}.cls-2{fill:#ffcb7c;}.cls-3{clip-path:url(#clip-path);}.cls-4{fill:#242c36;}</style><clipPath id="clip-path" transform="translate(10.34 14.26)"><rect class="cls-1" x="11.95" y="11.95" width="57.86" height="57.86" transform="translate(43.29 -16.88) rotate(47.39)"/></clipPath></defs><title>Asset 7</title><g id="Layer_2" data-name="Layer 2"><g id="BACKGROUND"><rect class="cls-2" x="38.85" y="24.15" width="35.79" height="35.79" transform="translate(56.69 -13.55) rotate(45)"/><g class="cls-3"><path class="cls-4" d="M24.06,76.49l-1.67-.28L23.08,72a7,7,0,0,1,5.83-5.8l.86-.14a5.32,5.32,0,0,0,4.41-4.34A7.05,7.05,0,0,1,40.07,56l.74-.11a5.32,5.32,0,0,0,4.45-4.29l0-.14a7,7,0,0,1,5.94-5.67l.62-.09a5.34,5.34,0,0,0,4.49-4.25l.06-.27a7,7,0,0,1,6-5.61l.5-.06a5.34,5.34,0,0,0,4.53-4.2l.09-.41a7,7,0,0,1,6-5.54l.38-.05a5.34,5.34,0,0,0,4.57-4.15l1.07-4.86,1.66.36-1.07,4.87a7,7,0,0,1-6,5.47l-.37.05a5.32,5.32,0,0,0-4.59,4.2l-.08.41a7.06,7.06,0,0,1-6,5.54l-.5.06a5.33,5.33,0,0,0-4.54,4.25l-.06.28a7,7,0,0,1-5.92,5.59l-.62.09A5.35,5.35,0,0,0,47,51.75l0,.14a7,7,0,0,1-5.87,5.66l-.75.11A5.34,5.34,0,0,0,35.86,62,7,7,0,0,1,30,67.74l-.86.14a5.32,5.32,0,0,0-4.42,4.4Z" transform="translate(10.34 14.26)"/><path class="cls-4" d="M31.57,84.65l-1.68-.28.69-4.21a7,7,0,0,1,5.84-5.81l.86-.13a5.36,5.36,0,0,0,4.41-4.34,7,7,0,0,1,5.88-5.74l.75-.11a5.36,5.36,0,0,0,4.45-4.3l0-.13a7,7,0,0,1,5.94-5.68l.63-.08a5.35,5.35,0,0,0,4.49-4.25l0-.27a7,7,0,0,1,6-5.61l.5-.07a5.35,5.35,0,0,0,4.54-4.19L75,39a7,7,0,0,1,6-5.54l.37,0A5.33,5.33,0,0,0,86,29.3l1.07-4.87,1.66.37-1.06,4.87a7.05,7.05,0,0,1-6,5.47l-.37,0a5.31,5.31,0,0,0-4.58,4.2l-.09.41a7,7,0,0,1-6,5.53l-.5.07a5.32,5.32,0,0,0-4.54,4.25l0,.27a7,7,0,0,1-5.93,5.6l-.62.09a5.33,5.33,0,0,0-4.5,4.3l0,.14a7,7,0,0,1-5.87,5.66l-.74.11a5.32,5.32,0,0,0-4.46,4.35,7.08,7.08,0,0,1-5.83,5.73l-.85.13a5.36,5.36,0,0,0-4.43,4.4Z" transform="translate(10.34 14.26)"/><path class="cls-4" d="M39.07,92.81l-1.68-.28.7-4.21a7,7,0,0,1,5.83-5.81l.86-.14A5.32,5.32,0,0,0,49.19,78a7,7,0,0,1,5.89-5.73l.74-.12a5.33,5.33,0,0,0,4.45-4.29l0-.14a7,7,0,0,1,5.94-5.67l.62-.09a5.34,5.34,0,0,0,4.49-4.24l.05-.27a7,7,0,0,1,6-5.61l.5-.07a5.35,5.35,0,0,0,4.53-4.19l.08-.41a7,7,0,0,1,6-5.54l.37,0a5.35,5.35,0,0,0,4.58-4.15l1.07-4.87,1.66.37-1.07,4.86a7.05,7.05,0,0,1-6,5.48l-.38.05a5.32,5.32,0,0,0-4.58,4.2l-.09.4a7,7,0,0,1-6,5.54l-.5.07a5.33,5.33,0,0,0-4.55,4.25l0,.27a7,7,0,0,1-5.92,5.6l-.63.09a5.32,5.32,0,0,0-4.5,4.3l0,.14a7,7,0,0,1-5.87,5.66l-.74.11a5.33,5.33,0,0,0-4.46,4.35,7.06,7.06,0,0,1-5.82,5.73l-.86.13a5.33,5.33,0,0,0-4.42,4.4Z" transform="translate(10.34 14.26)"/><path class="cls-4" d="M46.57,101l-1.68-.27.7-4.22a7,7,0,0,1,5.83-5.8l.86-.14a5.32,5.32,0,0,0,4.41-4.34,7.05,7.05,0,0,1,5.89-5.74l.74-.11a5.31,5.31,0,0,0,4.45-4.29l0-.14a7,7,0,0,1,5.94-5.67l.62-.09a5.32,5.32,0,0,0,4.49-4.24l.06-.28a7,7,0,0,1,6-5.6l.5-.07a5.33,5.33,0,0,0,4.53-4.2l.09-.4a7,7,0,0,1,6-5.55l.38,0A5.35,5.35,0,0,0,101,45.62l1.07-4.87,1.66.37L102.67,46a7,7,0,0,1-6,5.48l-.37,0a5.35,5.35,0,0,0-4.59,4.21l-.08.4a7.05,7.05,0,0,1-6,5.54l-.5.06A5.33,5.33,0,0,0,80.58,66l-.06.27a7,7,0,0,1-5.92,5.6l-.62.09a5.33,5.33,0,0,0-4.51,4.3l0,.13A7,7,0,0,1,63.58,82l-.75.11a5.33,5.33,0,0,0-4.46,4.35,7,7,0,0,1-5.82,5.72l-.86.14a5.32,5.32,0,0,0-4.42,4.4Z" transform="translate(10.34 14.26)"/><path class="cls-4" d="M-8.66,46l-1.68-.28.69-4.21a7,7,0,0,1,5.83-5.8l.86-.14a5.34,5.34,0,0,0,4.42-4.34,7,7,0,0,1,5.88-5.74l.74-.11A5.35,5.35,0,0,0,12.54,21l0-.14a7,7,0,0,1,5.94-5.67l.62-.09a5.34,5.34,0,0,0,4.49-4.24l.06-.28a7,7,0,0,1,6-5.61l.5-.06A5.34,5.34,0,0,0,34.69.75l.09-.4a7,7,0,0,1,6-5.55l.38,0A5.35,5.35,0,0,0,45.77-9.4l1.07-4.86,1.66.36L47.43-9a7,7,0,0,1-6,5.48l-.37,0A5.32,5.32,0,0,0,36.44.69l-.08.41a7.06,7.06,0,0,1-6,5.54l-.5.06A5.33,5.33,0,0,0,25.34,11l-.06.28a7,7,0,0,1-5.92,5.6l-.62.08a5.35,5.35,0,0,0-4.51,4.3l0,.14A7,7,0,0,1,8.34,27l-.75.12a5.32,5.32,0,0,0-4.46,4.34A7,7,0,0,1-2.69,37.2l-.86.14A5.32,5.32,0,0,0-8,41.74Z" transform="translate(10.34 14.26)"/><path class="cls-4" d="M-1.16,54.11l-1.68-.28.69-4.21a7,7,0,0,1,5.84-5.8l.86-.14A5.36,5.36,0,0,0,9,39.34a7,7,0,0,1,5.88-5.74l.75-.11A5.35,5.35,0,0,0,20,29.2l0-.14A7,7,0,0,1,26,23.39l.63-.09a5.35,5.35,0,0,0,4.49-4.25l.05-.27a7,7,0,0,1,6-5.61l.5-.06a5.36,5.36,0,0,0,4.54-4.2l.08-.41a7,7,0,0,1,6-5.54l.37,0a5.33,5.33,0,0,0,4.57-4.15L54.34-6.1,56-5.74,54.94-.87a7,7,0,0,1-6,5.47l-.37.05A5.32,5.32,0,0,0,44,8.85l-.09.41a7,7,0,0,1-6,5.53l-.5.07a5.33,5.33,0,0,0-4.54,4.25l-.05.27A7,7,0,0,1,26.86,25l-.62.09a5.33,5.33,0,0,0-4.5,4.3l0,.14a7,7,0,0,1-5.87,5.66l-.74.11a5.32,5.32,0,0,0-4.46,4.35,7.05,7.05,0,0,1-5.83,5.73L4,45.5A5.34,5.34,0,0,0-.47,49.9Z" transform="translate(10.34 14.26)"/><path class="cls-4" d="M6.34,62.27,4.66,62l.7-4.21A7,7,0,0,1,11.19,52l.86-.13a5.34,5.34,0,0,0,4.41-4.35,7,7,0,0,1,5.89-5.73l.74-.11a5.36,5.36,0,0,0,4.45-4.3l0-.14a7,7,0,0,1,5.94-5.67l.62-.08a5.36,5.36,0,0,0,4.49-4.25l.06-.27a7,7,0,0,1,6-5.61l.5-.07a5.35,5.35,0,0,0,4.53-4.19l.08-.41a7,7,0,0,1,6-5.54l.37,0a5.35,5.35,0,0,0,4.58-4.15l1.07-4.87,1.66.37L62.44,7.28a7.05,7.05,0,0,1-6,5.48l-.38.05A5.32,5.32,0,0,0,51.45,17l-.08.4a7.06,7.06,0,0,1-6,5.54l-.5.07a5.31,5.31,0,0,0-4.54,4.25l-.06.27a7,7,0,0,1-5.92,5.6l-.63.09a5.33,5.33,0,0,0-4.5,4.3l0,.14a7.07,7.07,0,0,1-5.88,5.66l-.74.11a5.33,5.33,0,0,0-4.46,4.35,7.06,7.06,0,0,1-5.82,5.73l-.86.13A5.33,5.33,0,0,0,7,58.05Z" transform="translate(10.34 14.26)"/><path class="cls-4" d="M13.85,70.42l-1.68-.27.69-4.22a7,7,0,0,1,5.83-5.8l.86-.14A5.33,5.33,0,0,0,24,55.65a7,7,0,0,1,5.88-5.73l.74-.12a5.33,5.33,0,0,0,4.46-4.29l0-.14A7,7,0,0,1,41,39.7l.62-.09a5.32,5.32,0,0,0,4.49-4.24l.06-.28a7,7,0,0,1,6-5.6l.5-.07a5.33,5.33,0,0,0,4.53-4.2l.09-.4a7,7,0,0,1,6-5.55l.38,0a5.34,5.34,0,0,0,4.57-4.15l1.07-4.87,1.66.37-1.07,4.86a7,7,0,0,1-6,5.48l-.37,0A5.35,5.35,0,0,0,59,25.17l-.08.4a7.05,7.05,0,0,1-6,5.54l-.5.07a5.31,5.31,0,0,0-4.54,4.25l-.06.27a7,7,0,0,1-5.92,5.6l-.62.09a5.34,5.34,0,0,0-4.51,4.3l0,.14a7,7,0,0,1-5.87,5.66l-.75.11A5.33,5.33,0,0,0,25.64,56a7,7,0,0,1-5.82,5.72l-.86.14a5.32,5.32,0,0,0-4.42,4.4Z" transform="translate(10.34 14.26)"/></g></g></g></svg>