<svg xmlns="http://www.w3.org/2000/svg" xmlns:xlink="http://www.w3.org/1999/xlink" viewBox="0 0 227.71 183.92"><defs><style>.cls-1{fill:none;}.cls-2{clip-path:url(#clip-path);}.cls-3{fill:#8873d5;}</style><clipPath id="clip-path" transform="translate(41.16 44.67)"><polygon class="cls-1" points="0 73.34 71.36 0 144.47 71.13 0 73.34"/></clipPath></defs><title>Asset 8</title><g id="Layer_2" data-name="Layer 2"><g id="BACKGROUND"><g class="cls-2"><rect class="cls-3" x="-47.49" y="-7.79" width="197.73" height="4.67" transform="translate(46.95 63.53) rotate(-22.01)"/><rect class="cls-3" x="-43.23" y="2.76" width="197.73" height="4.67" transform="translate(43.31 65.89) rotate(-22.01)"/><rect class="cls-3" x="-38.96" y="13.31" width="197.73" height="4.67" transform="translate(39.66 68.26) rotate(-22.01)"/><rect class="cls-3" x="-34.7" y="23.85" width="197.73" height="4.67" transform="translate(36.02 70.63) rotate(-22.01)"/><rect class="cls-3" x="-30.43" y="34.4" width="197.73" height="4.67" transform="translate(32.38 72.99) rotate(-22.01)"/><rect class="cls-3" x="-26.17" y="44.95" width="197.73" height="4.67" transform="translate(28.74 75.36) rotate(-22.01)"/><rect class="cls-3" x="-21.91" y="55.5" width="197.73" height="4.67" transform="translate(25.09 77.73) rotate(-22.01)"/><rect class="cls-3" x="-17.64" y="66.05" width="197.73" height="4.67" transform="translate(21.45 80.09) rotate(-22.01)"/><rect class="cls-3" x="-13.38" y="76.6" width="197.73" height="4.67" transform="translate(17.81 82.46) rotate(-22.01)"/><rect class="cls-3" x="-9.11" y="87.15" width="197.73" height="4.67" transform="translate(14.17 84.83) rotate(-22.01)"/><rect class="cls-3" x="-4.85" y="97.7" width="197.73" height="4.67" transform="translate(10.52 87.2) rotate(-22.01)"/></g></g></g></svg>