<svg xmlns="http://www.w3.org/2000/svg" viewBox="0 0 83.85 59.94"><defs><style>.cls-1{fill:#525252;}.cls-2{fill:#fff;}.cls-3{fill:#242c36;}</style></defs><title>Asset 5</title><g id="Layer_2" data-name="Layer 2"><g id="BACKGROUND"><rect class="cls-1" y="12.15" width="73.35" height="47.79"/><polygon class="cls-2" points="24.05 42.88 22.23 44.7 20.41 42.88 19.08 44.22 20.89 46.04 19.08 47.85 20.41 49.19 22.23 47.38 24.05 49.19 25.39 47.85 23.57 46.04 25.39 44.22 24.05 42.88"/><polygon class="cls-2" points="24.05 28.59 22.23 30.41 20.41 28.59 19.08 29.93 20.89 31.74 19.08 33.56 20.41 34.9 22.23 33.08 24.05 34.9 25.39 33.56 23.57 31.74 25.39 29.93 24.05 28.59"/><polygon class="cls-2" points="24.05 14.29 22.23 16.11 20.41 14.29 19.08 15.63 20.89 17.45 19.08 19.27 20.41 20.61 22.23 18.79 24.05 20.61 25.39 19.27 23.57 17.45 25.39 15.63 24.05 14.29"/><polygon class="cls-3" points="24.05 0 22.23 1.82 20.41 0 19.08 1.34 20.89 3.15 19.08 4.97 20.41 6.31 22.23 4.49 24.05 6.31 25.39 4.97 23.57 3.15 25.39 1.34 24.05 0"/><polygon class="cls-2" points="39.62 42.88 37.81 44.7 35.99 42.88 34.65 44.22 36.47 46.04 34.65 47.85 35.99 49.19 37.81 47.38 39.62 49.19 40.96 47.85 39.15 46.04 40.96 44.22 39.62 42.88"/><polygon class="cls-2" points="39.62 28.59 37.81 30.41 35.99 28.59 34.65 29.93 36.47 31.74 34.65 33.56 35.99 34.9 37.81 33.08 39.62 34.9 40.96 33.56 39.15 31.74 40.96 29.93 39.62 28.59"/><polygon class="cls-2" points="39.62 14.29 37.81 16.11 35.99 14.29 34.65 15.63 36.47 17.45 34.65 19.27 35.99 20.61 37.81 18.79 39.62 20.61 40.96 19.27 39.15 17.45 40.96 15.63 39.62 14.29"/><polygon class="cls-3" points="39.62 0 37.81 1.82 35.99 0 34.65 1.34 36.47 3.15 34.65 4.97 35.99 6.31 37.81 4.49 39.62 6.31 40.96 4.97 39.15 3.15 40.96 1.34 39.62 0"/><polygon class="cls-2" points="54.05 42.88 52.23 44.7 50.41 42.88 49.08 44.22 50.89 46.04 49.08 47.85 50.41 49.19 52.23 47.38 54.05 49.19 55.39 47.85 53.57 46.04 55.39 44.22 54.05 42.88"/><polygon class="cls-2" points="54.05 28.59 52.23 30.41 50.41 28.59 49.08 29.93 50.89 31.74 49.08 33.56 50.41 34.9 52.23 33.08 54.05 34.9 55.39 33.56 53.57 31.74 55.39 29.93 54.05 28.59"/><polygon class="cls-2" points="54.05 14.29 52.23 16.11 50.41 14.29 49.08 15.63 50.89 17.45 49.08 19.27 50.41 20.61 52.23 18.79 54.05 20.61 55.39 19.27 53.57 17.45 55.39 15.63 54.05 14.29"/><polygon class="cls-3" points="54.05 0 52.23 1.82 50.41 0 49.08 1.34 50.89 3.15 49.08 4.97 50.41 6.31 52.23 4.49 54.05 6.31 55.39 4.97 53.57 3.15 55.39 1.34 54.05 0"/><polygon class="cls-2" points="69.62 42.88 67.81 44.7 65.99 42.88 64.65 44.22 66.47 46.04 64.65 47.85 65.99 49.19 67.81 47.38 69.62 49.19 70.96 47.85 69.14 46.04 70.96 44.22 69.62 42.88"/><polygon class="cls-2" points="69.62 28.59 67.81 30.41 65.99 28.59 64.65 29.93 66.47 31.74 64.65 33.56 65.99 34.9 67.81 33.08 69.62 34.9 70.96 33.56 69.14 31.74 70.96 29.93 69.62 28.59"/><polygon class="cls-2" points="69.62 14.29 67.81 16.11 65.99 14.29 64.65 15.63 66.47 17.45 64.65 19.27 65.99 20.61 67.81 18.79 69.62 20.61 70.96 19.27 69.14 17.45 70.96 15.63 69.62 14.29"/><polygon class="cls-3" points="69.62 0 67.81 1.82 65.99 0 64.65 1.34 66.47 3.15 64.65 4.97 65.99 6.31 67.81 4.49 69.62 6.31 70.96 4.97 69.14 3.15 70.96 1.34 69.62 0"/><polygon class="cls-3" points="82.51 42.88 80.7 44.7 78.88 42.88 77.54 44.22 79.36 46.04 77.54 47.85 78.88 49.19 80.7 47.38 82.51 49.19 83.85 47.85 82.03 46.04 83.85 44.22 82.51 42.88"/><polygon class="cls-3" points="82.51 28.59 80.7 30.41 78.88 28.59 77.54 29.93 79.36 31.74 77.54 33.56 78.88 34.9 80.7 33.08 82.51 34.9 83.85 33.56 82.03 31.74 83.85 29.93 82.51 28.59"/><polygon class="cls-3" points="82.51 14.29 80.7 16.11 78.88 14.29 77.54 15.63 79.36 17.45 77.54 19.27 78.88 20.61 80.7 18.79 82.51 20.61 83.85 19.27 82.03 17.45 83.85 15.63 82.51 14.29"/><polygon class="cls-3" points="82.51 0 80.7 1.82 78.88 0 77.54 1.34 79.36 3.15 77.54 4.97 78.88 6.31 80.7 4.49 82.51 6.31 83.85 4.97 82.03 3.15 83.85 1.34 82.51 0"/></g></g></svg>
