<svg xmlns="http://www.w3.org/2000/svg" xmlns:xlink="http://www.w3.org/1999/xlink" viewBox="0 0 106.89 126.58"><defs><style>.cls-1{fill:none;}.cls-2{fill:#ff5e6c;}.cls-3{clip-path:url(#clip-path);}.cls-4{fill:#242c36;}</style><clipPath id="clip-path" transform="translate(0 17.25)"><polygon class="cls-1" points="61.34 15.49 22.99 81.91 99.69 81.91 61.34 15.49 22.99 81.91 99.69 81.91 61.34 15.49"/></clipPath></defs><title>Asset 3</title><g id="Layer_2" data-name="Layer 2"><g id="BACKGROUND"><polygon class="cls-2" points="40.61 17.25 60.92 52.42 81.22 87.59 40.61 87.59 0 87.59 20.31 52.42 40.61 17.25"/><g class="cls-3"><path class="cls-4" d="M61.91,107.67a.83.83,0,0,1,.82.83.83.83,0,0,1-1.65,0A.83.83,0,0,1,61.91,107.67Z" transform="translate(0 17.25)"/><path class="cls-4" d="M62.73,101.7a.84.84,0,0,1-.74.91.82.82,0,0,1-.17-1.64A.83.83,0,0,1,62.73,101.7Z" transform="translate(0 17.25)"/><path class="cls-4" d="M62.73,95a.84.84,0,0,1-.74.91.82.82,0,0,1-.17-1.64A.83.83,0,0,1,62.73,95Z" transform="translate(0 17.25)"/><path class="cls-4" d="M62.73,81.57a.84.84,0,0,1-.74.91.82.82,0,1,1,.74-.91Z" transform="translate(0 17.25)"/><path class="cls-4" d="M62.73,88.28a.84.84,0,0,1-.74.91.82.82,0,0,1-.17-1.64A.83.83,0,0,1,62.73,88.28Z" transform="translate(0 17.25)"/><path class="cls-4" d="M67.77,107.67a.83.83,0,0,1,.82.83.83.83,0,0,1-1.65,0A.83.83,0,0,1,67.77,107.67Z" transform="translate(0 17.25)"/><path class="cls-4" d="M68.59,101.7a.84.84,0,0,1-.74.91.82.82,0,0,1-.17-1.64A.83.83,0,0,1,68.59,101.7Z" transform="translate(0 17.25)"/><path class="cls-4" d="M68.59,95a.84.84,0,0,1-.74.91.82.82,0,0,1-.17-1.64A.83.83,0,0,1,68.59,95Z" transform="translate(0 17.25)"/><path class="cls-4" d="M68.59,81.57a.84.84,0,0,1-.74.91.82.82,0,1,1,.74-.91Z" transform="translate(0 17.25)"/><path class="cls-4" d="M68.59,88.28a.84.84,0,0,1-.74.91.82.82,0,0,1-.17-1.64A.83.83,0,0,1,68.59,88.28Z" transform="translate(0 17.25)"/><path class="cls-4" d="M74,107.67a.83.83,0,0,1,.83.83.83.83,0,1,1-.83-.83Z" transform="translate(0 17.25)"/><path class="cls-4" d="M74.83,101.7a.84.84,0,0,1-.74.91.82.82,0,1,1,.74-.91Z" transform="translate(0 17.25)"/><path class="cls-4" d="M74.83,95a.84.84,0,0,1-.74.91.82.82,0,1,1,.74-.91Z" transform="translate(0 17.25)"/><path class="cls-4" d="M74.83,81.57a.83.83,0,0,1-1.65.17.83.83,0,0,1,1.65-.17Z" transform="translate(0 17.25)"/><path class="cls-4" d="M74.83,88.28a.84.84,0,0,1-.74.91.82.82,0,1,1,.74-.91Z" transform="translate(0 17.25)"/><path class="cls-4" d="M79.87,107.67a.83.83,0,0,1,.82.83.83.83,0,0,1-1.65,0A.83.83,0,0,1,79.87,107.67Z" transform="translate(0 17.25)"/><path class="cls-4" d="M80.69,101.7a.84.84,0,0,1-.74.91.82.82,0,1,1,.74-.91Z" transform="translate(0 17.25)"/><path class="cls-4" d="M80.69,95a.84.84,0,0,1-.74.91.82.82,0,1,1,.74-.91Z" transform="translate(0 17.25)"/><path class="cls-4" d="M80.69,81.57a.83.83,0,0,1-1.65.17.83.83,0,0,1,1.65-.17Z" transform="translate(0 17.25)"/><path class="cls-4" d="M80.69,88.28a.84.84,0,0,1-.74.91.82.82,0,1,1,.74-.91Z" transform="translate(0 17.25)"/><path class="cls-4" d="M85,107.67a.83.83,0,0,1,.82.83.83.83,0,0,1-1.65,0A.83.83,0,0,1,85,107.67Z" transform="translate(0 17.25)"/><path class="cls-4" d="M85.85,101.7a.82.82,0,0,1-.74.91.82.82,0,0,1-.17-1.64A.82.82,0,0,1,85.85,101.7Z" transform="translate(0 17.25)"/><path class="cls-4" d="M85.85,95a.82.82,0,0,1-.74.91.82.82,0,0,1-.17-1.64A.82.82,0,0,1,85.85,95Z" transform="translate(0 17.25)"/><path class="cls-4" d="M85.85,81.57a.82.82,0,1,1-1.64.17.81.81,0,0,1,.73-.9A.82.82,0,0,1,85.85,81.57Z" transform="translate(0 17.25)"/><path class="cls-4" d="M85.85,88.28a.83.83,0,0,1-.74.91.82.82,0,0,1-.17-1.64A.82.82,0,0,1,85.85,88.28Z" transform="translate(0 17.25)"/><path class="cls-4" d="M90.89,107.67a.83.83,0,0,1,.82.83.83.83,0,0,1-1.65,0A.83.83,0,0,1,90.89,107.67Z" transform="translate(0 17.25)"/><path class="cls-4" d="M91.71,101.7a.82.82,0,0,1-.74.91A.82.82,0,0,1,90.8,101,.82.82,0,0,1,91.71,101.7Z" transform="translate(0 17.25)"/><path class="cls-4" d="M91.71,95a.82.82,0,0,1-.74.91.82.82,0,0,1-.17-1.64A.82.82,0,0,1,91.71,95Z" transform="translate(0 17.25)"/><path class="cls-4" d="M91.71,81.57a.82.82,0,1,1-1.64.17.81.81,0,0,1,.73-.9A.82.82,0,0,1,91.71,81.57Z" transform="translate(0 17.25)"/><path class="cls-4" d="M91.71,88.28a.83.83,0,0,1-.74.91.82.82,0,0,1-.17-1.64A.82.82,0,0,1,91.71,88.28Z" transform="translate(0 17.25)"/><path class="cls-4" d="M97.13,107.67a.83.83,0,0,1,.82.83.83.83,0,0,1-1.65,0A.83.83,0,0,1,97.13,107.67Z" transform="translate(0 17.25)"/><path class="cls-4" d="M98,101.7a.83.83,0,0,1-.74.91A.82.82,0,0,1,97,101,.83.83,0,0,1,98,101.7Z" transform="translate(0 17.25)"/><path class="cls-4" d="M98,95a.83.83,0,0,1-.74.91A.82.82,0,0,1,97,94.26.83.83,0,0,1,98,95Z" transform="translate(0 17.25)"/><path class="cls-4" d="M98,81.57a.84.84,0,0,1-.74.91.82.82,0,1,1,.74-.91Z" transform="translate(0 17.25)"/><path class="cls-4" d="M98,88.28a.84.84,0,0,1-.74.91A.82.82,0,0,1,97,87.55.83.83,0,0,1,98,88.28Z" transform="translate(0 17.25)"/><path class="cls-4" d="M103,107.67a.83.83,0,0,1,.82.83.83.83,0,0,1-1.65,0A.83.83,0,0,1,103,107.67Z" transform="translate(0 17.25)"/><path class="cls-4" d="M103.81,101.7a.83.83,0,0,1-.74.91.82.82,0,0,1-.17-1.64A.83.83,0,0,1,103.81,101.7Z" transform="translate(0 17.25)"/><path class="cls-4" d="M103.81,95a.83.83,0,0,1-.74.91.82.82,0,0,1-.17-1.64A.83.83,0,0,1,103.81,95Z" transform="translate(0 17.25)"/><path class="cls-4" d="M103.81,81.57a.84.84,0,0,1-.74.91.82.82,0,1,1,.74-.91Z" transform="translate(0 17.25)"/><path class="cls-4" d="M103.81,88.28a.84.84,0,0,1-.74.91.82.82,0,0,1-.17-1.64A.83.83,0,0,1,103.81,88.28Z" transform="translate(0 17.25)"/><path class="cls-4" d="M13.53,107.67a.83.83,0,0,1,.83.83.83.83,0,1,1-.83-.83Z" transform="translate(0 17.25)"/><path class="cls-4" d="M14.36,101.7a.84.84,0,0,1-.74.91.82.82,0,1,1,.74-.91Z" transform="translate(0 17.25)"/><path class="cls-4" d="M14.36,95a.84.84,0,0,1-.74.91.82.82,0,1,1,.74-.91Z" transform="translate(0 17.25)"/><path class="cls-4" d="M14.36,81.57a.83.83,0,1,1-1.65.17.83.83,0,0,1,1.65-.17Z" transform="translate(0 17.25)"/><path class="cls-4" d="M14.36,88.28a.84.84,0,0,1-.74.91.82.82,0,1,1,.74-.91Z" transform="translate(0 17.25)"/><path class="cls-4" d="M19.39,107.67a.83.83,0,0,1,.83.83.83.83,0,1,1-.83-.83Z" transform="translate(0 17.25)"/><path class="cls-4" d="M20.22,101.7a.84.84,0,0,1-.74.91.82.82,0,1,1,.74-.91Z" transform="translate(0 17.25)"/><path class="cls-4" d="M20.22,95a.84.84,0,0,1-.74.91.82.82,0,1,1,.74-.91Z" transform="translate(0 17.25)"/><path class="cls-4" d="M20.22,81.57a.83.83,0,1,1-1.65.17.83.83,0,0,1,1.65-.17Z" transform="translate(0 17.25)"/><path class="cls-4" d="M20.22,88.28a.84.84,0,0,1-.74.91.82.82,0,1,1,.74-.91Z" transform="translate(0 17.25)"/><path class="cls-4" d="M25.63,107.67a.83.83,0,0,1,.83.83.83.83,0,1,1-.83-.83Z" transform="translate(0 17.25)"/><path class="cls-4" d="M26.45,101.7a.82.82,0,1,1-1.64.17.83.83,0,0,1,.74-.9A.81.81,0,0,1,26.45,101.7Z" transform="translate(0 17.25)"/><path class="cls-4" d="M26.45,95a.82.82,0,1,1-.9-.73A.81.81,0,0,1,26.45,95Z" transform="translate(0 17.25)"/><path class="cls-4" d="M26.45,81.57a.82.82,0,1,1-.9-.73A.81.81,0,0,1,26.45,81.57Z" transform="translate(0 17.25)"/><path class="cls-4" d="M26.45,88.28a.82.82,0,1,1-.9-.73A.81.81,0,0,1,26.45,88.28Z" transform="translate(0 17.25)"/><path class="cls-4" d="M31.49,107.67a.83.83,0,0,1,.83.83.83.83,0,1,1-.83-.83Z" transform="translate(0 17.25)"/><path class="cls-4" d="M32.31,101.7a.82.82,0,1,1-1.64.17.83.83,0,0,1,.74-.9A.81.81,0,0,1,32.31,101.7Z" transform="translate(0 17.25)"/><path class="cls-4" d="M32.31,95a.82.82,0,1,1-.9-.73A.81.81,0,0,1,32.31,95Z" transform="translate(0 17.25)"/><path class="cls-4" d="M32.31,81.57a.82.82,0,1,1-.9-.73A.81.81,0,0,1,32.31,81.57Z" transform="translate(0 17.25)"/><path class="cls-4" d="M32.31,88.28a.82.82,0,1,1-.9-.73A.81.81,0,0,1,32.31,88.28Z" transform="translate(0 17.25)"/><path class="cls-4" d="M36.66,107.67a.83.83,0,0,1,.82.83.83.83,0,0,1-1.65,0A.83.83,0,0,1,36.66,107.67Z" transform="translate(0 17.25)"/><path class="cls-4" d="M37.48,101.7a.83.83,0,0,1-.74.91.82.82,0,0,1-.17-1.64A.83.83,0,0,1,37.48,101.7Z" transform="translate(0 17.25)"/><path class="cls-4" d="M37.48,95a.83.83,0,0,1-.74.91.82.82,0,0,1-.17-1.64A.83.83,0,0,1,37.48,95Z" transform="translate(0 17.25)"/><path class="cls-4" d="M37.48,81.57a.84.84,0,0,1-.74.91.82.82,0,1,1,.74-.91Z" transform="translate(0 17.25)"/><path class="cls-4" d="M37.48,88.28a.84.84,0,0,1-.74.91.82.82,0,0,1-.17-1.64A.83.83,0,0,1,37.48,88.28Z" transform="translate(0 17.25)"/><path class="cls-4" d="M42.52,107.67a.83.83,0,0,1,.82.83.83.83,0,0,1-1.65,0A.83.83,0,0,1,42.52,107.67Z" transform="translate(0 17.25)"/><path class="cls-4" d="M43.34,101.7a.83.83,0,0,1-.74.91.82.82,0,0,1-.17-1.64A.83.83,0,0,1,43.34,101.7Z" transform="translate(0 17.25)"/><path class="cls-4" d="M43.34,95a.83.83,0,0,1-.74.91.82.82,0,0,1-.17-1.64A.83.83,0,0,1,43.34,95Z" transform="translate(0 17.25)"/><path class="cls-4" d="M43.34,81.57a.84.84,0,0,1-.74.91.82.82,0,1,1,.74-.91Z" transform="translate(0 17.25)"/><path class="cls-4" d="M43.34,88.28a.84.84,0,0,1-.74.91.82.82,0,0,1-.17-1.64A.83.83,0,0,1,43.34,88.28Z" transform="translate(0 17.25)"/><path class="cls-4" d="M48.76,107.67a.83.83,0,0,1,.82.83.83.83,0,0,1-1.65,0A.83.83,0,0,1,48.76,107.67Z" transform="translate(0 17.25)"/><path class="cls-4" d="M49.58,101.7a.84.84,0,0,1-.74.91.82.82,0,0,1-.17-1.64A.83.83,0,0,1,49.58,101.7Z" transform="translate(0 17.25)"/><path class="cls-4" d="M49.58,95a.84.84,0,0,1-.74.91.82.82,0,0,1-.17-1.64A.83.83,0,0,1,49.58,95Z" transform="translate(0 17.25)"/><path class="cls-4" d="M49.58,81.57a.84.84,0,0,1-.74.91.82.82,0,1,1,.74-.91Z" transform="translate(0 17.25)"/><path class="cls-4" d="M49.58,88.28a.84.84,0,0,1-.74.91.82.82,0,0,1-.17-1.64A.83.83,0,0,1,49.58,88.28Z" transform="translate(0 17.25)"/><path class="cls-4" d="M54.62,107.67a.83.83,0,0,1,.82.83.83.83,0,0,1-1.65,0A.83.83,0,0,1,54.62,107.67Z" transform="translate(0 17.25)"/><path class="cls-4" d="M55.44,101.7a.84.84,0,0,1-.74.91.82.82,0,0,1-.17-1.64A.83.83,0,0,1,55.44,101.7Z" transform="translate(0 17.25)"/><path class="cls-4" d="M55.44,95a.84.84,0,0,1-.74.91.82.82,0,0,1-.17-1.64A.83.83,0,0,1,55.44,95Z" transform="translate(0 17.25)"/><path class="cls-4" d="M55.44,81.57a.84.84,0,0,1-.74.91.82.82,0,1,1,.74-.91Z" transform="translate(0 17.25)"/><path class="cls-4" d="M55.44,88.28a.84.84,0,0,1-.74.91.82.82,0,0,1-.17-1.64A.83.83,0,0,1,55.44,88.28Z" transform="translate(0 17.25)"/><path class="cls-4" d="M61.91,74.44a.83.83,0,1,1-.83.82A.82.82,0,0,1,61.91,74.44Z" transform="translate(0 17.25)"/><path class="cls-4" d="M62.73,68.47a.83.83,0,0,1-.74.9.81.81,0,0,1-.9-.73.82.82,0,1,1,1.64-.17Z" transform="translate(0 17.25)"/><path class="cls-4" d="M62.73,61.76a.83.83,0,0,1-.74.9.81.81,0,0,1-.9-.73.82.82,0,1,1,1.64-.17Z" transform="translate(0 17.25)"/><path class="cls-4" d="M62.73,48.33a.84.84,0,0,1-.74.91.81.81,0,0,1-.9-.73.82.82,0,1,1,1.64-.18Z" transform="translate(0 17.25)"/><path class="cls-4" d="M62.73,55.05A.83.83,0,0,1,62,56a.81.81,0,0,1-.9-.73.82.82,0,1,1,1.64-.17Z" transform="translate(0 17.25)"/><circle class="cls-4" cx="67.77" cy="92.52" r="0.82"/><path class="cls-4" d="M68.59,68.47a.83.83,0,0,1-.74.9.81.81,0,0,1-.9-.73.82.82,0,1,1,1.64-.17Z" transform="translate(0 17.25)"/><path class="cls-4" d="M68.59,61.76a.83.83,0,0,1-.74.9.81.81,0,0,1-.9-.73.82.82,0,1,1,1.64-.17Z" transform="translate(0 17.25)"/><path class="cls-4" d="M68.59,48.33a.84.84,0,0,1-.74.91.81.81,0,0,1-.9-.73.82.82,0,0,1,1.64-.18Z" transform="translate(0 17.25)"/><path class="cls-4" d="M68.59,55.05a.83.83,0,0,1-.74.9.81.81,0,0,1-.9-.73.82.82,0,1,1,1.64-.17Z" transform="translate(0 17.25)"/><circle class="cls-4" cx="74" cy="92.52" r="0.82"/><path class="cls-4" d="M74.83,68.47a.83.83,0,0,1-1.65.17.84.84,0,0,1,.74-.91A.83.83,0,0,1,74.83,68.47Z" transform="translate(0 17.25)"/><path class="cls-4" d="M74.83,61.76a.83.83,0,1,1-.91-.74A.83.83,0,0,1,74.83,61.76Z" transform="translate(0 17.25)"/><path class="cls-4" d="M74.83,48.33a.84.84,0,0,1-.74.91.83.83,0,0,1-.91-.73.84.84,0,0,1,.74-.91A.83.83,0,0,1,74.83,48.33Z" transform="translate(0 17.25)"/><path class="cls-4" d="M74.83,55.05a.83.83,0,1,1-.91-.74A.83.83,0,0,1,74.83,55.05Z" transform="translate(0 17.25)"/><path class="cls-4" d="M79.87,74.44a.83.83,0,1,1-.83.82A.82.82,0,0,1,79.87,74.44Z" transform="translate(0 17.25)"/><path class="cls-4" d="M80.69,68.47a.83.83,0,0,1-1.65.17.84.84,0,0,1,.74-.91A.83.83,0,0,1,80.69,68.47Z" transform="translate(0 17.25)"/><path class="cls-4" d="M80.69,61.76a.83.83,0,1,1-.91-.74A.83.83,0,0,1,80.69,61.76Z" transform="translate(0 17.25)"/><path class="cls-4" d="M80.69,48.33a.84.84,0,0,1-.74.91.83.83,0,0,1-.91-.73.84.84,0,0,1,.74-.91A.83.83,0,0,1,80.69,48.33Z" transform="translate(0 17.25)"/><path class="cls-4" d="M80.69,55.05a.83.83,0,1,1-.91-.74A.83.83,0,0,1,80.69,55.05Z" transform="translate(0 17.25)"/><path class="cls-4" d="M85,74.44a.83.83,0,1,1-.83.82A.82.82,0,0,1,85,74.44Z" transform="translate(0 17.25)"/><path class="cls-4" d="M85.85,68.47a.82.82,0,0,1-1.64.17.82.82,0,1,1,1.64-.17Z" transform="translate(0 17.25)"/><path class="cls-4" d="M85.85,61.76a.82.82,0,1,1-.91-.74A.82.82,0,0,1,85.85,61.76Z" transform="translate(0 17.25)"/><path class="cls-4" d="M85.85,48.33a.82.82,0,0,1-.74.91.81.81,0,0,1-.9-.73.82.82,0,0,1,1.64-.18Z" transform="translate(0 17.25)"/><path class="cls-4" d="M85.85,55.05a.82.82,0,1,1-.91-.74A.82.82,0,0,1,85.85,55.05Z" transform="translate(0 17.25)"/><circle class="cls-4" cx="90.89" cy="92.52" r="0.82"/><path class="cls-4" d="M91.71,68.47a.82.82,0,0,1-1.64.17.82.82,0,1,1,1.64-.17Z" transform="translate(0 17.25)"/><path class="cls-4" d="M91.71,61.76A.82.82,0,1,1,90.8,61,.82.82,0,0,1,91.71,61.76Z" transform="translate(0 17.25)"/><path class="cls-4" d="M91.71,48.33a.82.82,0,0,1-.74.91.81.81,0,0,1-.9-.73.82.82,0,0,1,1.64-.18Z" transform="translate(0 17.25)"/><path class="cls-4" d="M91.71,55.05a.82.82,0,1,1-.91-.74A.82.82,0,0,1,91.71,55.05Z" transform="translate(0 17.25)"/><circle class="cls-4" cx="97.13" cy="92.52" r="0.82"/><path class="cls-4" d="M98,68.47a.82.82,0,1,1-.91-.74A.82.82,0,0,1,98,68.47Z" transform="translate(0 17.25)"/><path class="cls-4" d="M98,61.76a.83.83,0,0,1-.74.9.81.81,0,0,1-.9-.73A.82.82,0,1,1,98,61.76Z" transform="translate(0 17.25)"/><path class="cls-4" d="M98,48.33a.83.83,0,0,1-.74.91.81.81,0,0,1-.9-.73A.82.82,0,0,1,98,48.33Z" transform="translate(0 17.25)"/><path class="cls-4" d="M98,55.05a.83.83,0,0,1-.74.9.81.81,0,0,1-.9-.73A.82.82,0,1,1,98,55.05Z" transform="translate(0 17.25)"/><path class="cls-4" d="M103,74.44a.83.83,0,1,1-.83.82A.82.82,0,0,1,103,74.44Z" transform="translate(0 17.25)"/><path class="cls-4" d="M103.81,68.47a.82.82,0,1,1-.91-.74A.82.82,0,0,1,103.81,68.47Z" transform="translate(0 17.25)"/><path class="cls-4" d="M103.81,61.76a.83.83,0,0,1-.74.9.81.81,0,0,1-.9-.73.82.82,0,1,1,1.64-.17Z" transform="translate(0 17.25)"/><path class="cls-4" d="M103.81,48.33a.83.83,0,0,1-.74.91.81.81,0,0,1-.9-.73.82.82,0,0,1,1.64-.18Z" transform="translate(0 17.25)"/><path class="cls-4" d="M103.81,55.05a.83.83,0,0,1-.74.9.81.81,0,0,1-.9-.73.82.82,0,1,1,1.64-.17Z" transform="translate(0 17.25)"/><path class="cls-4" d="M13.53,74.44a.83.83,0,1,1-.82.82A.83.83,0,0,1,13.53,74.44Z" transform="translate(0 17.25)"/><path class="cls-4" d="M14.36,68.47a.83.83,0,0,1-1.65.17.84.84,0,0,1,.74-.91A.83.83,0,0,1,14.36,68.47Z" transform="translate(0 17.25)"/><path class="cls-4" d="M14.36,61.76a.83.83,0,1,1-.91-.74A.83.83,0,0,1,14.36,61.76Z" transform="translate(0 17.25)"/><path class="cls-4" d="M14.36,48.33a.84.84,0,0,1-.74.91.83.83,0,0,1-.91-.73.84.84,0,0,1,.74-.91A.83.83,0,0,1,14.36,48.33Z" transform="translate(0 17.25)"/><path class="cls-4" d="M14.36,55.05a.83.83,0,1,1-.91-.74A.83.83,0,0,1,14.36,55.05Z" transform="translate(0 17.25)"/><path class="cls-4" d="M19.39,74.44a.83.83,0,1,1-.82.82A.83.83,0,0,1,19.39,74.44Z" transform="translate(0 17.25)"/><path class="cls-4" d="M20.22,68.47a.83.83,0,0,1-1.65.17.84.84,0,0,1,.74-.91A.83.83,0,0,1,20.22,68.47Z" transform="translate(0 17.25)"/><path class="cls-4" d="M20.22,61.76a.83.83,0,1,1-.91-.74A.83.83,0,0,1,20.22,61.76Z" transform="translate(0 17.25)"/><path class="cls-4" d="M20.22,48.33a.84.84,0,0,1-.74.91.83.83,0,0,1-.91-.73.84.84,0,0,1,.74-.91A.83.83,0,0,1,20.22,48.33Z" transform="translate(0 17.25)"/><path class="cls-4" d="M20.22,55.05a.83.83,0,1,1-.91-.74A.83.83,0,0,1,20.22,55.05Z" transform="translate(0 17.25)"/><path class="cls-4" d="M25.63,74.44a.83.83,0,1,1-.82.82A.83.83,0,0,1,25.63,74.44Z" transform="translate(0 17.25)"/><path class="cls-4" d="M26.45,68.47a.81.81,0,0,1-.73.9.83.83,0,0,1-.91-.73.84.84,0,0,1,.74-.91A.81.81,0,0,1,26.45,68.47Z" transform="translate(0 17.25)"/><path class="cls-4" d="M26.45,61.76a.82.82,0,0,1-.73.9.83.83,0,0,1-.91-.73.84.84,0,0,1,.74-.91A.81.81,0,0,1,26.45,61.76Z" transform="translate(0 17.25)"/><path class="cls-4" d="M26.45,48.33a.82.82,0,1,1-1.64.18.84.84,0,0,1,.74-.91A.81.81,0,0,1,26.45,48.33Z" transform="translate(0 17.25)"/><path class="cls-4" d="M26.45,55.05a.82.82,0,0,1-.73.9.83.83,0,0,1-.91-.73.84.84,0,0,1,.74-.91A.81.81,0,0,1,26.45,55.05Z" transform="translate(0 17.25)"/><circle class="cls-4" cx="31.49" cy="92.52" r="0.82"/><path class="cls-4" d="M32.31,68.47a.81.81,0,0,1-.73.9.83.83,0,0,1-.91-.73.84.84,0,0,1,.74-.91A.81.81,0,0,1,32.31,68.47Z" transform="translate(0 17.25)"/><path class="cls-4" d="M32.31,61.76a.82.82,0,0,1-.73.9.83.83,0,0,1-.91-.73.84.84,0,0,1,.74-.91A.81.81,0,0,1,32.31,61.76Z" transform="translate(0 17.25)"/><path class="cls-4" d="M32.31,48.33a.82.82,0,0,1-1.64.18.84.84,0,0,1,.74-.91A.81.81,0,0,1,32.31,48.33Z" transform="translate(0 17.25)"/><path class="cls-4" d="M32.31,55.05a.82.82,0,0,1-.73.9.83.83,0,0,1-.91-.73.84.84,0,0,1,.74-.91A.81.81,0,0,1,32.31,55.05Z" transform="translate(0 17.25)"/><path class="cls-4" d="M36.66,74.44a.83.83,0,1,1-.83.82A.82.82,0,0,1,36.66,74.44Z" transform="translate(0 17.25)"/><path class="cls-4" d="M37.48,68.47a.82.82,0,1,1-.91-.74A.82.82,0,0,1,37.48,68.47Z" transform="translate(0 17.25)"/><path class="cls-4" d="M37.48,61.76a.83.83,0,0,1-.74.9.81.81,0,0,1-.9-.73.82.82,0,1,1,1.64-.17Z" transform="translate(0 17.25)"/><path class="cls-4" d="M37.48,48.33a.83.83,0,0,1-.74.91.81.81,0,0,1-.9-.73.82.82,0,1,1,1.64-.18Z" transform="translate(0 17.25)"/><path class="cls-4" d="M37.48,55.05a.83.83,0,0,1-.74.9.81.81,0,0,1-.9-.73.82.82,0,1,1,1.64-.17Z" transform="translate(0 17.25)"/><path class="cls-4" d="M42.52,74.44a.83.83,0,1,1-.83.82A.82.82,0,0,1,42.52,74.44Z" transform="translate(0 17.25)"/><path class="cls-4" d="M43.34,68.47a.82.82,0,1,1-.91-.74A.82.82,0,0,1,43.34,68.47Z" transform="translate(0 17.25)"/><path class="cls-4" d="M43.34,61.76a.83.83,0,0,1-.74.9.81.81,0,0,1-.9-.73.82.82,0,1,1,1.64-.17Z" transform="translate(0 17.25)"/><path class="cls-4" d="M43.34,48.33a.83.83,0,0,1-.74.91.81.81,0,0,1-.9-.73.82.82,0,0,1,1.64-.18Z" transform="translate(0 17.25)"/><path class="cls-4" d="M43.34,55.05a.83.83,0,0,1-.74.9.81.81,0,0,1-.9-.73.82.82,0,1,1,1.64-.17Z" transform="translate(0 17.25)"/><path class="cls-4" d="M48.76,74.44a.83.83,0,1,1-.83.82A.82.82,0,0,1,48.76,74.44Z" transform="translate(0 17.25)"/><path class="cls-4" d="M49.58,68.47a.83.83,0,0,1-.74.9.81.81,0,0,1-.9-.73.82.82,0,1,1,1.64-.17Z" transform="translate(0 17.25)"/><path class="cls-4" d="M49.58,61.76a.83.83,0,0,1-.74.9.81.81,0,0,1-.9-.73.82.82,0,1,1,1.64-.17Z" transform="translate(0 17.25)"/><path class="cls-4" d="M49.58,48.33a.84.84,0,0,1-.74.91.81.81,0,0,1-.9-.73.82.82,0,1,1,1.64-.18Z" transform="translate(0 17.25)"/><path class="cls-4" d="M49.58,55.05a.83.83,0,0,1-.74.9.81.81,0,0,1-.9-.73.82.82,0,1,1,1.64-.17Z" transform="translate(0 17.25)"/><circle class="cls-4" cx="54.62" cy="92.52" r="0.82"/><path class="cls-4" d="M55.44,68.47a.83.83,0,0,1-.74.9.81.81,0,0,1-.9-.73.82.82,0,1,1,1.64-.17Z" transform="translate(0 17.25)"/><path class="cls-4" d="M55.44,61.76a.83.83,0,0,1-.74.9.81.81,0,0,1-.9-.73.82.82,0,1,1,1.64-.17Z" transform="translate(0 17.25)"/><path class="cls-4" d="M55.44,48.33a.84.84,0,0,1-.74.91.81.81,0,0,1-.9-.73.82.82,0,1,1,1.64-.18Z" transform="translate(0 17.25)"/><path class="cls-4" d="M55.44,55.05a.83.83,0,0,1-.74.9.81.81,0,0,1-.9-.73.82.82,0,1,1,1.64-.17Z" transform="translate(0 17.25)"/><path class="cls-4" d="M61.91,41.49a.83.83,0,1,1-.83.82A.82.82,0,0,1,61.91,41.49Z" transform="translate(0 17.25)"/><path class="cls-4" d="M62.73,35.52a.83.83,0,0,1-.74.9.81.81,0,0,1-.9-.73.82.82,0,1,1,1.64-.17Z" transform="translate(0 17.25)"/><path class="cls-4" d="M62.73,28.81a.83.83,0,0,1-.74.9.81.81,0,0,1-.9-.73.82.82,0,1,1,1.64-.17Z" transform="translate(0 17.25)"/><path class="cls-4" d="M62.73,15.38a.84.84,0,0,1-.74.91.81.81,0,0,1-.9-.73.82.82,0,1,1,1.64-.18Z" transform="translate(0 17.25)"/><path class="cls-4" d="M62.73,22.09A.84.84,0,0,1,62,23a.81.81,0,0,1-.9-.73.82.82,0,0,1,1.64-.18Z" transform="translate(0 17.25)"/><circle class="cls-4" cx="67.77" cy="59.57" r="0.82"/><path class="cls-4" d="M68.59,35.52a.83.83,0,0,1-.74.9.81.81,0,0,1-.9-.73.82.82,0,1,1,1.64-.17Z" transform="translate(0 17.25)"/><path class="cls-4" d="M68.59,28.81a.83.83,0,0,1-.74.9A.81.81,0,0,1,67,29a.82.82,0,1,1,1.64-.17Z" transform="translate(0 17.25)"/><path class="cls-4" d="M68.59,15.38a.84.84,0,0,1-.74.91.81.81,0,0,1-.9-.73.82.82,0,0,1,1.64-.18Z" transform="translate(0 17.25)"/><path class="cls-4" d="M68.59,22.09a.84.84,0,0,1-.74.91.81.81,0,0,1-.9-.73.82.82,0,0,1,1.64-.18Z" transform="translate(0 17.25)"/><circle class="cls-4" cx="74" cy="59.57" r="0.82"/><path class="cls-4" d="M74.83,35.52a.83.83,0,0,1-1.65.17.84.84,0,0,1,.74-.91A.83.83,0,0,1,74.83,35.52Z" transform="translate(0 17.25)"/><path class="cls-4" d="M74.83,28.81a.83.83,0,1,1-.91-.74A.83.83,0,0,1,74.83,28.81Z" transform="translate(0 17.25)"/><path class="cls-4" d="M74.83,15.38a.84.84,0,0,1-.74.91.83.83,0,0,1-.91-.73.84.84,0,0,1,.74-.91A.83.83,0,0,1,74.83,15.38Z" transform="translate(0 17.25)"/><path class="cls-4" d="M74.83,22.09a.84.84,0,0,1-.74.91.83.83,0,0,1-.91-.73.84.84,0,0,1,.74-.91A.83.83,0,0,1,74.83,22.09Z" transform="translate(0 17.25)"/><path class="cls-4" d="M79.87,41.49a.83.83,0,1,1-.83.82A.82.82,0,0,1,79.87,41.49Z" transform="translate(0 17.25)"/><path class="cls-4" d="M80.69,35.52a.83.83,0,0,1-1.65.17.84.84,0,0,1,.74-.91A.83.83,0,0,1,80.69,35.52Z" transform="translate(0 17.25)"/><path class="cls-4" d="M80.69,28.81a.83.83,0,1,1-.91-.74A.83.83,0,0,1,80.69,28.81Z" transform="translate(0 17.25)"/><path class="cls-4" d="M80.69,15.38a.84.84,0,0,1-.74.91.83.83,0,0,1-.91-.73.84.84,0,0,1,.74-.91A.83.83,0,0,1,80.69,15.38Z" transform="translate(0 17.25)"/><path class="cls-4" d="M80.69,22.09A.84.84,0,0,1,80,23a.83.83,0,0,1-.91-.73.84.84,0,0,1,.74-.91A.83.83,0,0,1,80.69,22.09Z" transform="translate(0 17.25)"/><path class="cls-4" d="M85,41.49a.83.83,0,1,1-.83.82A.82.82,0,0,1,85,41.49Z" transform="translate(0 17.25)"/><path class="cls-4" d="M85.85,35.52a.82.82,0,0,1-1.64.17.82.82,0,1,1,1.64-.17Z" transform="translate(0 17.25)"/><path class="cls-4" d="M85.85,28.81a.82.82,0,1,1-.91-.74A.82.82,0,0,1,85.85,28.81Z" transform="translate(0 17.25)"/><path class="cls-4" d="M85.85,15.38a.82.82,0,0,1-.74.91.81.81,0,0,1-.9-.73.82.82,0,0,1,1.64-.18Z" transform="translate(0 17.25)"/><path class="cls-4" d="M85.85,22.09a.82.82,0,0,1-.74.91.81.81,0,0,1-.9-.73.82.82,0,0,1,1.64-.18Z" transform="translate(0 17.25)"/><circle class="cls-4" cx="90.89" cy="59.57" r="0.82"/><path class="cls-4" d="M91.71,35.52a.82.82,0,0,1-1.64.17.82.82,0,1,1,1.64-.17Z" transform="translate(0 17.25)"/><path class="cls-4" d="M91.71,28.81a.82.82,0,1,1-.91-.74A.82.82,0,0,1,91.71,28.81Z" transform="translate(0 17.25)"/><path class="cls-4" d="M91.71,15.38a.82.82,0,0,1-.74.91.81.81,0,0,1-.9-.73.82.82,0,0,1,1.64-.18Z" transform="translate(0 17.25)"/><path class="cls-4" d="M91.71,22.09A.82.82,0,0,1,91,23a.81.81,0,0,1-.9-.73.82.82,0,0,1,1.64-.18Z" transform="translate(0 17.25)"/><circle class="cls-4" cx="97.13" cy="59.57" r="0.82"/><path class="cls-4" d="M98,35.52a.82.82,0,1,1-.91-.74A.82.82,0,0,1,98,35.52Z" transform="translate(0 17.25)"/><path class="cls-4" d="M98,28.81a.83.83,0,0,1-.74.9.81.81,0,0,1-.9-.73A.82.82,0,1,1,98,28.81Z" transform="translate(0 17.25)"/><path class="cls-4" d="M98,15.38a.83.83,0,0,1-.74.91.81.81,0,0,1-.9-.73A.82.82,0,0,1,98,15.38Z" transform="translate(0 17.25)"/><path class="cls-4" d="M98,22.09a.83.83,0,0,1-.74.91.81.81,0,0,1-.9-.73A.82.82,0,0,1,98,22.09Z" transform="translate(0 17.25)"/><path class="cls-4" d="M103,41.49a.83.83,0,1,1-.83.82A.82.82,0,0,1,103,41.49Z" transform="translate(0 17.25)"/><path class="cls-4" d="M103.81,35.52a.82.82,0,1,1-.91-.74A.82.82,0,0,1,103.81,35.52Z" transform="translate(0 17.25)"/><path class="cls-4" d="M103.81,28.81a.83.83,0,0,1-.74.9.81.81,0,0,1-.9-.73.82.82,0,1,1,1.64-.17Z" transform="translate(0 17.25)"/><path class="cls-4" d="M103.81,15.38a.83.83,0,0,1-.74.91.81.81,0,0,1-.9-.73.82.82,0,0,1,1.64-.18Z" transform="translate(0 17.25)"/><path class="cls-4" d="M103.81,22.09a.83.83,0,0,1-.74.91.81.81,0,0,1-.9-.73.82.82,0,0,1,1.64-.18Z" transform="translate(0 17.25)"/><path class="cls-4" d="M13.53,41.49a.83.83,0,1,1-.82.82A.83.83,0,0,1,13.53,41.49Z" transform="translate(0 17.25)"/><path class="cls-4" d="M14.36,35.52a.83.83,0,0,1-1.65.17.84.84,0,0,1,.74-.91A.83.83,0,0,1,14.36,35.52Z" transform="translate(0 17.25)"/><path class="cls-4" d="M14.36,28.81a.83.83,0,1,1-.91-.74A.83.83,0,0,1,14.36,28.81Z" transform="translate(0 17.25)"/><path class="cls-4" d="M14.36,15.38a.84.84,0,0,1-.74.91.83.83,0,0,1-.91-.73.84.84,0,0,1,.74-.91A.83.83,0,0,1,14.36,15.38Z" transform="translate(0 17.25)"/><path class="cls-4" d="M14.36,22.09a.84.84,0,0,1-.74.91.83.83,0,0,1-.91-.73.84.84,0,0,1,.74-.91A.83.83,0,0,1,14.36,22.09Z" transform="translate(0 17.25)"/><path class="cls-4" d="M19.39,41.49a.83.83,0,1,1-.82.82A.83.83,0,0,1,19.39,41.49Z" transform="translate(0 17.25)"/><path class="cls-4" d="M20.22,35.52a.83.83,0,0,1-1.65.17.84.84,0,0,1,.74-.91A.83.83,0,0,1,20.22,35.52Z" transform="translate(0 17.25)"/><path class="cls-4" d="M20.22,28.81a.83.83,0,1,1-.91-.74A.83.83,0,0,1,20.22,28.81Z" transform="translate(0 17.25)"/><path class="cls-4" d="M20.22,15.38a.84.84,0,0,1-.74.91.83.83,0,0,1-.91-.73.84.84,0,0,1,.74-.91A.83.83,0,0,1,20.22,15.38Z" transform="translate(0 17.25)"/><path class="cls-4" d="M20.22,22.09a.84.84,0,0,1-.74.91.83.83,0,0,1-.91-.73.84.84,0,0,1,.74-.91A.83.83,0,0,1,20.22,22.09Z" transform="translate(0 17.25)"/><path class="cls-4" d="M25.63,41.49a.83.83,0,1,1-.82.82A.83.83,0,0,1,25.63,41.49Z" transform="translate(0 17.25)"/><path class="cls-4" d="M26.45,35.52a.81.81,0,0,1-.73.9.83.83,0,0,1-.91-.73.84.84,0,0,1,.74-.91A.81.81,0,0,1,26.45,35.52Z" transform="translate(0 17.25)"/><path class="cls-4" d="M26.45,28.81a.82.82,0,0,1-.73.9.83.83,0,0,1-.91-.73.84.84,0,0,1,.74-.91A.81.81,0,0,1,26.45,28.81Z" transform="translate(0 17.25)"/><path class="cls-4" d="M26.45,15.38a.82.82,0,1,1-1.64.18.84.84,0,0,1,.74-.91A.81.81,0,0,1,26.45,15.38Z" transform="translate(0 17.25)"/><path class="cls-4" d="M26.45,22.09a.82.82,0,0,1-1.64.18.84.84,0,0,1,.74-.91A.81.81,0,0,1,26.45,22.09Z" transform="translate(0 17.25)"/><circle class="cls-4" cx="31.49" cy="59.57" r="0.82"/><path class="cls-4" d="M32.31,35.52a.81.81,0,0,1-.73.9.83.83,0,0,1-.91-.73.84.84,0,0,1,.74-.91A.81.81,0,0,1,32.31,35.52Z" transform="translate(0 17.25)"/><path class="cls-4" d="M32.31,28.81a.82.82,0,0,1-.73.9.83.83,0,0,1-.91-.73.84.84,0,0,1,.74-.91A.81.81,0,0,1,32.31,28.81Z" transform="translate(0 17.25)"/><path class="cls-4" d="M32.31,15.38a.82.82,0,0,1-1.64.18.84.84,0,0,1,.74-.91A.81.81,0,0,1,32.31,15.38Z" transform="translate(0 17.25)"/><path class="cls-4" d="M32.31,22.09a.82.82,0,1,1-1.64.18.84.84,0,0,1,.74-.91A.81.81,0,0,1,32.31,22.09Z" transform="translate(0 17.25)"/><path class="cls-4" d="M36.66,41.49a.83.83,0,1,1-.83.82A.82.82,0,0,1,36.66,41.49Z" transform="translate(0 17.25)"/><path class="cls-4" d="M37.48,35.52a.82.82,0,1,1-.91-.74A.82.82,0,0,1,37.48,35.52Z" transform="translate(0 17.25)"/><path class="cls-4" d="M37.48,28.81a.83.83,0,0,1-.74.9.81.81,0,0,1-.9-.73.82.82,0,1,1,1.64-.17Z" transform="translate(0 17.25)"/><path class="cls-4" d="M37.48,15.38a.83.83,0,0,1-.74.91.81.81,0,0,1-.9-.73.82.82,0,0,1,1.64-.18Z" transform="translate(0 17.25)"/><path class="cls-4" d="M37.48,22.09a.83.83,0,0,1-.74.91.81.81,0,0,1-.9-.73.82.82,0,0,1,1.64-.18Z" transform="translate(0 17.25)"/><path class="cls-4" d="M42.52,41.49a.83.83,0,1,1-.83.82A.82.82,0,0,1,42.52,41.49Z" transform="translate(0 17.25)"/><path class="cls-4" d="M43.34,35.52a.82.82,0,1,1-.91-.74A.82.82,0,0,1,43.34,35.52Z" transform="translate(0 17.25)"/><path class="cls-4" d="M43.34,28.81a.83.83,0,0,1-.74.9.81.81,0,0,1-.9-.73.82.82,0,1,1,1.64-.17Z" transform="translate(0 17.25)"/><path class="cls-4" d="M43.34,15.38a.83.83,0,0,1-.74.91.81.81,0,0,1-.9-.73.82.82,0,1,1,1.64-.18Z" transform="translate(0 17.25)"/><path class="cls-4" d="M43.34,22.09a.83.83,0,0,1-.74.91.81.81,0,0,1-.9-.73.82.82,0,1,1,1.64-.18Z" transform="translate(0 17.25)"/><path class="cls-4" d="M48.76,41.49a.83.83,0,1,1-.83.82A.82.82,0,0,1,48.76,41.49Z" transform="translate(0 17.25)"/><path class="cls-4" d="M49.58,35.52a.83.83,0,0,1-.74.9.81.81,0,0,1-.9-.73.82.82,0,1,1,1.64-.17Z" transform="translate(0 17.25)"/><path class="cls-4" d="M49.58,28.81a.83.83,0,0,1-.74.9.81.81,0,0,1-.9-.73.82.82,0,1,1,1.64-.17Z" transform="translate(0 17.25)"/><path class="cls-4" d="M49.58,15.38a.84.84,0,0,1-.74.91.81.81,0,0,1-.9-.73.82.82,0,0,1,1.64-.18Z" transform="translate(0 17.25)"/><path class="cls-4" d="M49.58,22.09a.84.84,0,0,1-.74.91.81.81,0,0,1-.9-.73.82.82,0,0,1,1.64-.18Z" transform="translate(0 17.25)"/><circle class="cls-4" cx="54.62" cy="59.57" r="0.82"/><path class="cls-4" d="M55.44,35.52a.83.83,0,0,1-.74.9.81.81,0,0,1-.9-.73.82.82,0,1,1,1.64-.17Z" transform="translate(0 17.25)"/><path class="cls-4" d="M55.44,28.81a.83.83,0,0,1-.74.9.81.81,0,0,1-.9-.73.82.82,0,1,1,1.64-.17Z" transform="translate(0 17.25)"/><path class="cls-4" d="M55.44,15.38a.84.84,0,0,1-.74.91.81.81,0,0,1-.9-.73.82.82,0,0,1,1.64-.18Z" transform="translate(0 17.25)"/><path class="cls-4" d="M55.44,22.09a.84.84,0,0,1-.74.91.81.81,0,0,1-.9-.73.82.82,0,0,1,1.64-.18Z" transform="translate(0 17.25)"/><path class="cls-4" d="M65,9.59a.83.83,0,1,1-.82.82A.83.83,0,0,1,65,9.59Z" transform="translate(0 17.25)"/><path class="cls-4" d="M65.8,3.62a.81.81,0,0,1-.73.9.82.82,0,1,1,.73-.9Z" transform="translate(0 17.25)"/><path class="cls-4" d="M65.8-3.09a.81.81,0,0,1-.73.9.83.83,0,0,1-.91-.73.83.83,0,0,1,.74-.91A.81.81,0,0,1,65.8-3.09Z" transform="translate(0 17.25)"/><path class="cls-4" d="M65.8-16.51a.82.82,0,0,1-.73.9.83.83,0,0,1-.91-.73.83.83,0,0,1,.74-.91A.81.81,0,0,1,65.8-16.51Z" transform="translate(0 17.25)"/><path class="cls-4" d="M65.8-9.8a.82.82,0,0,1-.73.9.83.83,0,0,1-.91-.73.83.83,0,0,1,.74-.91A.81.81,0,0,1,65.8-9.8Z" transform="translate(0 17.25)"/><path class="cls-4" d="M70.84,9.59a.83.83,0,1,1-.82.82A.83.83,0,0,1,70.84,9.59Z" transform="translate(0 17.25)"/><path class="cls-4" d="M71.66,3.62a.81.81,0,0,1-.73.9A.83.83,0,0,1,70,3.79a.84.84,0,0,1,.74-.91A.82.82,0,0,1,71.66,3.62Z" transform="translate(0 17.25)"/><path class="cls-4" d="M71.66-3.09a.81.81,0,0,1-.73.9A.83.83,0,0,1,70-2.92a.84.84,0,0,1,.74-.91A.81.81,0,0,1,71.66-3.09Z" transform="translate(0 17.25)"/><path class="cls-4" d="M71.66-16.51a.82.82,0,0,1-.73.9.83.83,0,0,1-.91-.73.84.84,0,0,1,.74-.91A.81.81,0,0,1,71.66-16.51Z" transform="translate(0 17.25)"/><path class="cls-4" d="M71.66-9.8a.82.82,0,0,1-.73.9A.83.83,0,0,1,70-9.63a.84.84,0,0,1,.74-.91A.81.81,0,0,1,71.66-9.8Z" transform="translate(0 17.25)"/><path class="cls-4" d="M77.08,9.59a.83.83,0,1,1-.82.82A.83.83,0,0,1,77.08,9.59Z" transform="translate(0 17.25)"/><path class="cls-4" d="M77.9,3.62a.81.81,0,0,1-.73.9.82.82,0,1,1,.73-.9Z" transform="translate(0 17.25)"/><path class="cls-4" d="M77.9-3.09a.81.81,0,0,1-.73.9.83.83,0,0,1-.91-.73A.82.82,0,0,1,77-3.83.81.81,0,0,1,77.9-3.09Z" transform="translate(0 17.25)"/><path class="cls-4" d="M77.9-16.51a.82.82,0,0,1-.73.9.83.83,0,0,1-.91-.73.82.82,0,0,1,.74-.91A.81.81,0,0,1,77.9-16.51Z" transform="translate(0 17.25)"/><path class="cls-4" d="M77.9-9.8a.82.82,0,0,1-.73.9.83.83,0,0,1-.91-.73.82.82,0,0,1,.74-.91A.81.81,0,0,1,77.9-9.8Z" transform="translate(0 17.25)"/><path class="cls-4" d="M82.94,9.59a.83.83,0,1,1-.82.82A.83.83,0,0,1,82.94,9.59Z" transform="translate(0 17.25)"/><path class="cls-4" d="M83.76,3.62a.81.81,0,0,1-.73.9.82.82,0,1,1,.73-.9Z" transform="translate(0 17.25)"/><path class="cls-4" d="M83.76-3.09a.81.81,0,0,1-.73.9.83.83,0,0,1-.91-.73.83.83,0,0,1,.74-.91A.81.81,0,0,1,83.76-3.09Z" transform="translate(0 17.25)"/><path class="cls-4" d="M83.76-16.51a.82.82,0,0,1-.73.9.83.83,0,0,1-.91-.73.83.83,0,0,1,.74-.91A.81.81,0,0,1,83.76-16.51Z" transform="translate(0 17.25)"/><path class="cls-4" d="M83.76-9.8a.82.82,0,0,1-.73.9.83.83,0,0,1-.91-.73.83.83,0,0,1,.74-.91A.81.81,0,0,1,83.76-9.8Z" transform="translate(0 17.25)"/><path class="cls-4" d="M88.11,9.59a.83.83,0,1,1-.83.82A.82.82,0,0,1,88.11,9.59Z" transform="translate(0 17.25)"/><path class="cls-4" d="M88.93,3.62a.83.83,0,0,1-1.65.17.83.83,0,1,1,1.65-.17Z" transform="translate(0 17.25)"/><path class="cls-4" d="M88.93-3.09a.83.83,0,0,1-.74.9.83.83,0,0,1-.91-.73A.84.84,0,0,1,88-3.83.83.83,0,0,1,88.93-3.09Z" transform="translate(0 17.25)"/><path class="cls-4" d="M88.93-16.51a.83.83,0,0,1-.74.9.83.83,0,0,1-.91-.73.84.84,0,0,1,.74-.91A.83.83,0,0,1,88.93-16.51Z" transform="translate(0 17.25)"/><path class="cls-4" d="M88.93-9.8a.83.83,0,0,1-.74.9.83.83,0,0,1-.91-.73.84.84,0,0,1,.74-.91A.83.83,0,0,1,88.93-9.8Z" transform="translate(0 17.25)"/><path class="cls-4" d="M94,9.59a.83.83,0,1,1-.83.82A.82.82,0,0,1,94,9.59Z" transform="translate(0 17.25)"/><path class="cls-4" d="M94.79,3.62a.83.83,0,0,1-.74.9.81.81,0,0,1-.9-.73.82.82,0,1,1,1.64-.17Z" transform="translate(0 17.25)"/><path class="cls-4" d="M94.79-3.09a.83.83,0,0,1-.74.9.81.81,0,0,1-.9-.73.82.82,0,0,1,.73-.91A.83.83,0,0,1,94.79-3.09Z" transform="translate(0 17.25)"/><path class="cls-4" d="M94.79-16.51a.83.83,0,0,1-.74.9.81.81,0,0,1-.9-.73.82.82,0,0,1,.73-.91A.83.83,0,0,1,94.79-16.51Z" transform="translate(0 17.25)"/><path class="cls-4" d="M94.79-9.8a.83.83,0,0,1-.74.9.81.81,0,0,1-.9-.73.82.82,0,0,1,.73-.91A.83.83,0,0,1,94.79-9.8Z" transform="translate(0 17.25)"/><path class="cls-4" d="M100.2,9.59a.83.83,0,1,1-.82.82A.83.83,0,0,1,100.2,9.59Z" transform="translate(0 17.25)"/><path class="cls-4" d="M101,3.62a.83.83,0,0,1-1.65.17A.83.83,0,1,1,101,3.62Z" transform="translate(0 17.25)"/><path class="cls-4" d="M101-3.09a.83.83,0,0,1-.74.9.83.83,0,0,1-.91-.73.84.84,0,0,1,.74-.91A.83.83,0,0,1,101-3.09Z" transform="translate(0 17.25)"/><path class="cls-4" d="M101-16.51a.83.83,0,0,1-.74.9.83.83,0,0,1-.91-.73.84.84,0,0,1,.74-.91A.83.83,0,0,1,101-16.51Z" transform="translate(0 17.25)"/><path class="cls-4" d="M101-9.8a.83.83,0,0,1-.74.9.83.83,0,0,1-.91-.73.84.84,0,0,1,.74-.91A.83.83,0,0,1,101-9.8Z" transform="translate(0 17.25)"/><path class="cls-4" d="M106.06,9.59a.83.83,0,1,1-.82.82A.83.83,0,0,1,106.06,9.59Z" transform="translate(0 17.25)"/><path class="cls-4" d="M106.89,3.62a.83.83,0,0,1-1.65.17.83.83,0,0,1,1.65-.17Z" transform="translate(0 17.25)"/><path class="cls-4" d="M106.89-3.09a.83.83,0,0,1-.74.9.83.83,0,0,1-.91-.73.84.84,0,0,1,.74-.91A.83.83,0,0,1,106.89-3.09Z" transform="translate(0 17.25)"/><path class="cls-4" d="M106.89-16.51a.83.83,0,0,1-.74.9.83.83,0,0,1-.91-.73.84.84,0,0,1,.74-.91A.83.83,0,0,1,106.89-16.51Z" transform="translate(0 17.25)"/><path class="cls-4" d="M106.89-9.8a.83.83,0,0,1-.74.9.83.83,0,0,1-.91-.73.84.84,0,0,1,.74-.91A.83.83,0,0,1,106.89-9.8Z" transform="translate(0 17.25)"/><path class="cls-4" d="M16.61,9.59a.83.83,0,1,1-.82.82A.83.83,0,0,1,16.61,9.59Z" transform="translate(0 17.25)"/><path class="cls-4" d="M17.43,3.62a.81.81,0,0,1-.73.9.82.82,0,1,1,.73-.9Z" transform="translate(0 17.25)"/><path class="cls-4" d="M17.43-3.09a.81.81,0,0,1-.73.9.82.82,0,0,1-.91-.73.82.82,0,0,1,.74-.91A.81.81,0,0,1,17.43-3.09Z" transform="translate(0 17.25)"/><path class="cls-4" d="M17.43-16.51a.82.82,0,0,1-.73.9.82.82,0,0,1-.91-.73.82.82,0,0,1,.74-.91A.81.81,0,0,1,17.43-16.51Z" transform="translate(0 17.25)"/><path class="cls-4" d="M17.43-9.8a.82.82,0,0,1-.73.9.82.82,0,0,1-.91-.73.82.82,0,0,1,.74-.91A.81.81,0,0,1,17.43-9.8Z" transform="translate(0 17.25)"/><path class="cls-4" d="M22.47,9.59a.83.83,0,1,1-.82.82A.83.83,0,0,1,22.47,9.59Z" transform="translate(0 17.25)"/><path class="cls-4" d="M23.29,3.62a.81.81,0,0,1-.73.9.82.82,0,1,1,.73-.9Z" transform="translate(0 17.25)"/><path class="cls-4" d="M23.29-3.09a.81.81,0,0,1-.73.9.83.83,0,0,1-.91-.73.82.82,0,0,1,.74-.91A.81.81,0,0,1,23.29-3.09Z" transform="translate(0 17.25)"/><path class="cls-4" d="M23.29-16.51a.82.82,0,0,1-.73.9.83.83,0,0,1-.91-.73.82.82,0,0,1,.74-.91A.81.81,0,0,1,23.29-16.51Z" transform="translate(0 17.25)"/><path class="cls-4" d="M23.29-9.8a.82.82,0,0,1-.73.9.83.83,0,0,1-.91-.73.82.82,0,0,1,.74-.91A.81.81,0,0,1,23.29-9.8Z" transform="translate(0 17.25)"/><path class="cls-4" d="M28.71,9.59a.83.83,0,1,1-.82.82A.83.83,0,0,1,28.71,9.59Z" transform="translate(0 17.25)"/><path class="cls-4" d="M29.53,3.62a.81.81,0,0,1-.73.9.82.82,0,1,1,.73-.9Z" transform="translate(0 17.25)"/><path class="cls-4" d="M29.53-3.09a.81.81,0,0,1-.73.9.82.82,0,0,1-.91-.73.82.82,0,0,1,.74-.91A.82.82,0,0,1,29.53-3.09Z" transform="translate(0 17.25)"/><path class="cls-4" d="M29.53-16.51a.82.82,0,0,1-.73.9.82.82,0,0,1-.91-.73.82.82,0,0,1,.74-.91A.82.82,0,0,1,29.53-16.51Z" transform="translate(0 17.25)"/><path class="cls-4" d="M29.53-9.8a.82.82,0,0,1-.73.9.82.82,0,0,1-.91-.73.82.82,0,0,1,.74-.91A.82.82,0,0,1,29.53-9.8Z" transform="translate(0 17.25)"/><path class="cls-4" d="M34.57,9.59a.83.83,0,1,1-.82.82A.83.83,0,0,1,34.57,9.59Z" transform="translate(0 17.25)"/><path class="cls-4" d="M35.39,3.62a.81.81,0,0,1-.73.9.82.82,0,1,1,.73-.9Z" transform="translate(0 17.25)"/><path class="cls-4" d="M35.39-3.09a.81.81,0,0,1-.73.9.82.82,0,0,1-.91-.73.82.82,0,0,1,.74-.91A.81.81,0,0,1,35.39-3.09Z" transform="translate(0 17.25)"/><path class="cls-4" d="M35.39-16.51a.82.82,0,0,1-.73.9.82.82,0,0,1-.91-.73.82.82,0,0,1,.74-.91A.81.81,0,0,1,35.39-16.51Z" transform="translate(0 17.25)"/><path class="cls-4" d="M35.39-9.8a.82.82,0,0,1-.73.9.82.82,0,0,1-.91-.73.82.82,0,0,1,.74-.91A.81.81,0,0,1,35.39-9.8Z" transform="translate(0 17.25)"/><path class="cls-4" d="M39.73,9.59a.83.83,0,1,1-.82.82A.83.83,0,0,1,39.73,9.59Z" transform="translate(0 17.25)"/><path class="cls-4" d="M40.55,3.62a.81.81,0,0,1-.73.9.83.83,0,0,1-.91-.73.84.84,0,0,1,.74-.91A.82.82,0,0,1,40.55,3.62Z" transform="translate(0 17.25)"/><path class="cls-4" d="M40.55-3.09a.81.81,0,0,1-.73.9.83.83,0,0,1-.91-.73.84.84,0,0,1,.74-.91A.81.81,0,0,1,40.55-3.09Z" transform="translate(0 17.25)"/><path class="cls-4" d="M40.55-16.51a.82.82,0,0,1-.73.9.83.83,0,0,1-.91-.73.84.84,0,0,1,.74-.91A.81.81,0,0,1,40.55-16.51Z" transform="translate(0 17.25)"/><path class="cls-4" d="M40.55-9.8a.82.82,0,0,1-.73.9.83.83,0,0,1-.91-.73.84.84,0,0,1,.74-.91A.81.81,0,0,1,40.55-9.8Z" transform="translate(0 17.25)"/><path class="cls-4" d="M45.59,9.59a.83.83,0,1,1-.82.82A.83.83,0,0,1,45.59,9.59Z" transform="translate(0 17.25)"/><path class="cls-4" d="M46.42,3.62a.83.83,0,0,1-1.65.17.83.83,0,0,1,1.65-.17Z" transform="translate(0 17.25)"/><path class="cls-4" d="M46.42-3.09a.83.83,0,0,1-.74.9.83.83,0,0,1-.91-.73.84.84,0,0,1,.74-.91A.83.83,0,0,1,46.42-3.09Z" transform="translate(0 17.25)"/><path class="cls-4" d="M46.42-16.51a.83.83,0,0,1-.74.9.83.83,0,0,1-.91-.73.84.84,0,0,1,.74-.91A.83.83,0,0,1,46.42-16.51Z" transform="translate(0 17.25)"/><path class="cls-4" d="M46.42-9.8a.83.83,0,0,1-.74.9.83.83,0,0,1-.91-.73.84.84,0,0,1,.74-.91A.83.83,0,0,1,46.42-9.8Z" transform="translate(0 17.25)"/><path class="cls-4" d="M51.83,9.59a.83.83,0,1,1-.82.82A.83.83,0,0,1,51.83,9.59Z" transform="translate(0 17.25)"/><path class="cls-4" d="M52.65,3.62a.81.81,0,0,1-.73.9A.83.83,0,0,1,51,3.79a.84.84,0,0,1,.74-.91A.82.82,0,0,1,52.65,3.62Z" transform="translate(0 17.25)"/><path class="cls-4" d="M52.65-3.09a.81.81,0,0,1-.73.9A.83.83,0,0,1,51-2.92a.84.84,0,0,1,.74-.91A.81.81,0,0,1,52.65-3.09Z" transform="translate(0 17.25)"/><path class="cls-4" d="M52.65-16.51a.82.82,0,0,1-.73.9.83.83,0,0,1-.91-.73.84.84,0,0,1,.74-.91A.81.81,0,0,1,52.65-16.51Z" transform="translate(0 17.25)"/><path class="cls-4" d="M52.65-9.8a.82.82,0,0,1-.73.9A.83.83,0,0,1,51-9.63a.84.84,0,0,1,.74-.91A.81.81,0,0,1,52.65-9.8Z" transform="translate(0 17.25)"/><path class="cls-4" d="M57.69,9.59a.83.83,0,1,1-.82.82A.83.83,0,0,1,57.69,9.59Z" transform="translate(0 17.25)"/><path class="cls-4" d="M58.51,3.62a.81.81,0,0,1-.73.9.83.83,0,0,1-.91-.73.84.84,0,0,1,.74-.91A.82.82,0,0,1,58.51,3.62Z" transform="translate(0 17.25)"/><path class="cls-4" d="M58.51-3.09a.81.81,0,0,1-.73.9.83.83,0,0,1-.91-.73.84.84,0,0,1,.74-.91A.81.81,0,0,1,58.51-3.09Z" transform="translate(0 17.25)"/><path class="cls-4" d="M58.51-16.51a.82.82,0,0,1-.73.9.83.83,0,0,1-.91-.73.84.84,0,0,1,.74-.91A.81.81,0,0,1,58.51-16.51Z" transform="translate(0 17.25)"/><path class="cls-4" d="M58.51-9.8a.82.82,0,0,1-.73.9.83.83,0,0,1-.91-.73.84.84,0,0,1,.74-.91A.81.81,0,0,1,58.51-9.8Z" transform="translate(0 17.25)"/></g></g></g></svg>