<svg xmlns="http://www.w3.org/2000/svg" viewBox="0 0 98.26 47.84"><defs><style>.cls-1{fill:#242c36;}</style></defs><title>Asset 6</title><g id="Layer_2" data-name="Layer 2"><g id="BACKGROUND"><polygon class="cls-1" points="18.27 8.77 8.74 2.46 1.23 8.34 0 6.76 8.65 0 18.18 6.32 26.46 0 35.81 6.32 44.27 0 53.43 6.32 62.08 0 71.05 6.32 79.89 0 88.67 6.32 97.11 0.41 98.26 2.05 88.66 8.77 79.89 2.46 71.06 8.77 62.1 2.46 53.46 8.77 44.31 2.46 35.87 8.77 26.53 2.46 18.27 8.77"/><polygon class="cls-1" points="18.27 21.8 8.74 15.48 1.23 21.36 0 19.78 8.65 13.02 18.18 19.34 26.46 13.02 35.81 19.34 44.27 13.02 53.43 19.34 62.08 13.02 71.05 19.34 79.89 13.02 88.67 19.34 97.11 13.43 98.26 15.07 88.66 21.8 79.89 15.48 71.06 21.8 62.1 15.48 53.46 21.8 44.31 15.48 35.87 21.8 26.53 15.48 18.27 21.8"/><polygon class="cls-1" points="18.27 34.82 8.74 28.5 1.23 34.38 0 32.8 8.65 26.04 18.18 32.36 26.46 26.04 35.81 32.36 44.27 26.04 53.43 32.36 62.08 26.04 71.05 32.36 79.89 26.04 88.67 32.36 97.11 26.45 98.26 28.09 88.66 34.82 79.89 28.5 71.06 34.82 62.1 28.5 53.46 34.82 44.31 28.5 35.87 34.82 26.53 28.5 18.27 34.82"/><polygon class="cls-1" points="18.27 47.84 8.74 41.53 1.23 47.4 0 45.82 8.65 39.06 18.18 45.38 26.46 39.06 35.81 45.38 44.27 39.06 53.43 45.38 62.08 39.06 71.05 45.38 79.89 39.06 88.67 45.38 97.11 39.48 98.26 41.11 88.66 47.84 79.89 41.52 71.06 47.84 62.1 41.52 53.46 47.84 44.31 41.52 35.87 47.84 26.53 41.53 18.27 47.84"/></g></g></svg>