<svg xmlns="http://www.w3.org/2000/svg" xmlns:xlink="http://www.w3.org/1999/xlink" viewBox="0 0 117.54 145.98"><defs><style>.cls-1{fill:none;}.cls-2{clip-path:url(#clip-path);}.cls-3{fill:#ff5e6c;}</style><clipPath id="clip-path" transform="translate(31.75 36.49)"><circle class="cls-1" cx="34.5" cy="34.5" r="34.49" transform="translate(-10.59 53.14) rotate(-67.46)"/></clipPath></defs><title>Asset 4</title><g id="Layer_2" data-name="Layer 2"><g id="BACKGROUND"><g class="cls-2"><rect class="cls-3" x="-2.5" y="21.49" width="126.86" height="2.99" transform="translate(91.5 -5.63) rotate(68.28)"/><rect class="cls-3" x="-9.28" y="24.2" width="126.86" height="2.99" transform="translate(89.73 2.37) rotate(68.28)"/><rect class="cls-3" x="-16.06" y="26.9" width="126.86" height="2.99" transform="translate(87.97 10.37) rotate(68.28)"/><rect class="cls-3" x="-22.84" y="29.6" width="126.86" height="2.99" transform="translate(86.21 18.37) rotate(68.28)"/><rect class="cls-3" x="-29.62" y="32.3" width="126.86" height="2.99" transform="translate(84.44 26.38) rotate(68.28)"/><rect class="cls-3" x="-36.41" y="35" width="126.86" height="2.99" transform="translate(82.68 34.38) rotate(68.28)"/><rect class="cls-3" x="-43.19" y="37.7" width="126.86" height="2.99" transform="translate(80.92 42.38) rotate(68.28)"/><rect class="cls-3" x="-49.97" y="40.4" width="126.86" height="2.99" transform="translate(79.15 50.38) rotate(68.28)"/><rect class="cls-3" x="-56.75" y="43.1" width="126.86" height="2.99" transform="translate(77.39 58.38) rotate(68.28)"/><rect class="cls-3" x="-63.53" y="45.81" width="126.86" height="2.99" transform="translate(75.63 66.39) rotate(68.28)"/><rect class="cls-3" x="-70.32" y="48.51" width="126.86" height="2.99" transform="translate(73.86 74.39) rotate(68.28)"/></g></g></g></svg>
